<svg id="Layer_1" data-name="Layer 1" xmlns="http://www.w3.org/2000/svg" viewBox="0 0 26.77 12.39"><defs><style>.cls-1{font-size:3.65px;stroke:#000;stroke-width:0.15px;font-family:BritannicBold, Britannic Bold;}.cls-1,.cls-12{fill:#fc0000;}.cls-1,.cls-2,.cls-3{stroke-miterlimit:10;}.cls-2,.cls-3{fill:#fff;stroke:#231f20;}.cls-2{stroke-width:0.28px;}.cls-3{stroke-width:0.18px;}.cls-4{fill:#c4c4c4;}.cls-5{fill:#231f20;}.cls-6{fill:#fbb040;}.cls-7{fill:#cc8629;}.cls-8{fill:#f7bc6d;}.cls-9{fill:#c4570c;}.cls-10{fill:#843b09;}.cls-11{fill:#e28749;}.cls-13{fill:#126200;}</style></defs><text class="cls-1" transform="translate(15.47 5.7)">Bob’s<tspan x="0" y="4.38">Bakery</tspan></text><ellipse class="cls-2" cx="7.91" cy="8.49" rx="5.99" ry="3.75"/><ellipse class="cls-3" cx="7.91" cy="8.4" rx="5.09" ry="3.18"/><path class="cls-4" d="M6.43,2.71a32.45,32.45,0,0,1-3.81-.22c-.17,0-.39-.07-.43-.25a.31.31,0,0,1,.18-.31,1,1,0,0,1,.39-.05,15.9,15.9,0,0,0,3.14.3" transform="translate(-2.1 -1.5)"/><path class="cls-5" d="M6.43,2.62c-.66,0-1.32,0-2-.06l-1-.07a4.7,4.7,0,0,1-1-.12c-.34-.12-.11-.38.13-.4A2.12,2.12,0,0,1,3,2c.34,0,.67.09,1,.15a6.52,6.52,0,0,0,1.87.11c.11,0,.11-.19,0-.17a8.87,8.87,0,0,1-2.41-.21,2.93,2.93,0,0,0-1-.07.39.39,0,0,0-.35.48c.07.23.34.27.55.29.41,0,.82.09,1.24.12.84.07,1.68.1,2.52.1a.09.09,0,0,0,0-.18Z" transform="translate(-2.1 -1.5)"/><path class="cls-6" d="M6.78,11.05a1.45,1.45,0,0,1-1.14-1,2.46,2.46,0,0,1-.11-1.29,21.22,21.22,0,0,1,.84-2.12,5.88,5.88,0,0,0,.16-1.78,10.71,10.71,0,0,0-.14-2,1.6,1.6,0,0,1,0-.84c.1.2.38.19.6.15s.5-.07.62.11-.08.49-.19.74a2.58,2.58,0,0,0,0,1.32,15.11,15.11,0,0,0,0,2.23A1.86,1.86,0,0,0,8.47,7.76l-.22-.14c1.09.4,2.29-.23,3.45-.15a6.14,6.14,0,0,1,1,.19,1.25,1.25,0,0,1,.85.51c.23.48-.22,1.13.08,1.57a2,2,0,0,0,.58.4c.19.13.36.39.24.6a.74.74,0,0,1-.19.16,5.45,5.45,0,0,1-3.49.36A21.36,21.36,0,0,0,6.59,11" transform="translate(-2.1 -1.5)"/><path class="cls-6" d="M6.78,10.69c-.86-.11-1-1.32-.88-2s.61-1.28.81-2a7.46,7.46,0,0,0,.17-2.21,9.65,9.65,0,0,0-.06-1.2A4.05,4.05,0,0,1,6.7,2.07l-.59.15a.74.74,0,0,0,.62.28,2.77,2.77,0,0,1,.46-.06c.09.09-.07.27-.1.35-.28.64,0,1.32,0,2a5.07,5.07,0,0,0,.08,2.09A2.25,2.25,0,0,0,8.29,8.07a.35.35,0,0,0,.36-.61l-.22-.15L8.16,8c1.32.43,2.63-.33,4-.08a3.23,3.23,0,0,1,.92.26c.35.22.24.51.19.86a1.15,1.15,0,0,0,.42,1.21c.09.06.21.11.31.18s.19.14,0,.27a2.31,2.31,0,0,1-.93.3,7.7,7.7,0,0,1-2.09,0,23.85,23.85,0,0,0-4.38-.31c-.46,0-.46.74,0,.71a40.59,40.59,0,0,1,5.16.39c.7,0,3.84-.11,3-1.53-.16-.27-.41-.34-.64-.52S14,9.06,14,8.72a1.16,1.16,0,0,0-.86-1.3,4.79,4.79,0,0,0-2.28-.27,5.78,5.78,0,0,1-2.51.13c-.4-.13-.6.43-.28.65l.22.14.36-.61a1.64,1.64,0,0,1-1-1.57,14.3,14.3,0,0,0,0-2.07,1.65,1.65,0,0,1,.18-1,.75.75,0,0,0,0-.67.66.66,0,0,0-.5-.35c-.19,0-.67.13-.79,0a.36.36,0,0,0-.6.16,3.63,3.63,0,0,0,.08,1.31,11.81,11.81,0,0,1,.09,1.57A7.9,7.9,0,0,1,6.1,6.22a5.54,5.54,0,0,1-.52,1.35A3.33,3.33,0,0,0,5.24,10,1.88,1.88,0,0,0,6.78,11.4c.46.06.45-.65,0-.71Z" transform="translate(-2.1 -1.5)"/><path class="cls-7" d="M14.12,10.27c.1.79-1.75.83-2.25.81a22.29,22.29,0,0,1-2.56-.39,9.94,9.94,0,0,0-1.21-.13c-.42,0-.83,0-1.24.06A.82.82,0,0,1,6,9.92a1.28,1.28,0,0,1,.07-1.16c.22-.36-.27-.7-.56-.44l-.22.2.6.35a18.2,18.2,0,0,0,.84-2.59,9.26,9.26,0,0,0,.06-2.73c0-.45-.75-.45-.71,0A8.67,8.67,0,0,1,6,6.24a20.51,20.51,0,0,1-.81,2.44c-.13.35.35.57.6.34L6,8.83,5.43,8.4a2.21,2.21,0,0,0,.43,2.65,1.71,1.71,0,0,0,1.27.26,7.8,7.8,0,0,1,2,.07,14.3,14.3,0,0,0,3.5.4c.81-.08,2.35-.41,2.21-1.51-.06-.45-.77-.45-.71,0Z" transform="translate(-2.1 -1.5)"/><path class="cls-7" d="M6,2S6,2,6,2v.14c0,.06,0,.12,0,.18a1.71,1.71,0,0,0,0,.39,2.3,2.3,0,0,0,.2.86.45.45,0,0,0,.62.25A.72.72,0,0,0,7,3.43c.13-.29.28-.69,0-1a.36.36,0,0,0-.56.07.51.51,0,0,0,0,.69.59.59,0,0,0,.67.1.52.52,0,0,0,.29-.49,1.05,1.05,0,0,0-.23-.53.35.35,0,0,0-.3-.18.37.37,0,0,0-.31.18c-.21.27-.08.78.31.76a.48.48,0,0,0,.4-.24.49.49,0,0,0,.06-.17.11.11,0,0,0,0,0v0s0,0,0,0l-.22.16H7a.44.44,0,0,0,.42-.1.39.39,0,0,0,.14-.33A.36.36,0,0,0,7.19,2a.37.37,0,0,0-.36.36s0,0,0,0,0,0,0,.06l0,.12a.14.14,0,0,0,0,.06s0,.06,0,0v0a.16.16,0,0,1,0,.07.36.36,0,0,0,.62.36,1.71,1.71,0,0,0,.2-.7H6.83A.18.18,0,0,1,7,2.17c.18,0,.2-.07.05-.07a.45.45,0,0,0-.16,0,.38.38,0,0,0-.22.26s0,.07,0,.1,0,.08,0,0v0a.27.27,0,0,1,.22-.13l.18,0,0,0,.09.15s0,0,0,0h0a.14.14,0,0,1,0,.06l0,0H6.59l.09.15,0,.07s0,0,0,0,0,0,0,0,0-.09,0-.13l.06,0h0l.07,0h.05c-.07,0,0,0,.09.13V3A.13.13,0,0,1,7,3V3a.22.22,0,0,0,0-.08L6.52,3a.25.25,0,0,1-.06-.16v0c0,.06,0,.12,0,.18s0,.1,0,0l0,.07a.3.3,0,0,0,0,.08l0,0,.06-.06.18,0a.23.23,0,0,1,.23.16l0,0,0-.1c0-.06,0-.12-.05-.18s0-.13,0-.2,0,.07,0,0a.34.34,0,0,1,0-.1c0-.13,0-.26,0-.39a1.49,1.49,0,0,0,0-.47.34.34,0,0,0-.43-.24A.35.35,0,0,0,6,2Z" transform="translate(-2.1 -1.5)"/><path class="cls-8" d="M9.68,10.31l.32-.08c.11,0,.13,0,.22.08a1.36,1.36,0,0,0,.52.19,5.7,5.7,0,0,0,1.24,0,2.67,2.67,0,0,0,2.06-1c.18-.25-.21-.52-.42-.32a2,2,0,0,1-.7.4,2.32,2.32,0,0,1-.86.18c-.29,0-.56-.1-.85-.1s-.63,0-1,0l.14.5a.31.31,0,0,1,.19,0V9.63c-.3,0-.6,0-.9,0s-.35.55,0,.53l.9,0a.27.27,0,0,0,0-.53.83.83,0,0,0-.46.11c-.26.13-.11.47.13.49s.69,0,1,0a6.89,6.89,0,0,0,1,.09A3,3,0,0,0,14,9.62l-.42-.33a2.42,2.42,0,0,1-2,.72,2.3,2.3,0,0,1-1-.11,1.22,1.22,0,0,0-.44-.22,1.68,1.68,0,0,0-.59.12.26.26,0,0,0,.14.51Z" transform="translate(-2.1 -1.5)"/><path class="cls-8" d="M7.73,10.1a6.16,6.16,0,0,0,2.14.14.27.27,0,0,0,.26-.27.27.27,0,0,0-.26-.27,5.84,5.84,0,0,1-2-.11.26.26,0,0,0-.14.51Z" transform="translate(-2.1 -1.5)"/><path class="cls-7" d="M7.18,10.52a2.64,2.64,0,0,1-.73-.63,1.79,1.79,0,0,1-.23-1A.27.27,0,0,0,6,8.61a.26.26,0,0,0-.26.27,2.38,2.38,0,0,0,1.46,2.17A.27.27,0,0,0,7.49,11a.26.26,0,0,0,0-.35l-.75-.74a2.18,2.18,0,0,1-.49-.73A.28.28,0,0,0,5.9,9a.27.27,0,0,0-.19.33A4.93,4.93,0,0,0,7.1,11l.32-.41a2.41,2.41,0,0,1-.85-.65,1.6,1.6,0,0,1-.35-1.06H5.69A2.29,2.29,0,0,0,6,10.16a3.29,3.29,0,0,0,.92.82.26.26,0,0,0,.36-.1.26.26,0,0,0-.09-.36Z" transform="translate(-2.1 -1.5)"/><path class="cls-5" d="M5.74,10.89a2.7,2.7,0,0,1-.55-1.64,5,5,0,0,1,.64-1.89A7,7,0,0,0,6.21,4,16.88,16.88,0,0,1,6,2.26l0-.26c.4-.07.57,0,.5.29a2.35,2.35,0,0,1,0,.27,1.21,1.21,0,0,0,.16.55.44.44,0,0,0,.53.25c.16,0-.06-.42.3,0,.19.21.12.87.11,1.15,0,.86-.28,2.11.54,2.71a3.12,3.12,0,0,0,2.49.1,5.06,5.06,0,0,1,1.9,0,2,2,0,0,1,1,.41c.39.36.29.7.24,1.16a.91.91,0,0,0,.31.83,5.2,5.2,0,0,1,.44.38c.39.41.16.84-.28,1.1-1.32.78-3,.41-4.47.2a10.73,10.73,0,0,0-2-.16c-.35,0-.7.1-1,.09a1.77,1.77,0,0,1-1.15-.59c-.08-.08-.21,0-.12.13a1.91,1.91,0,0,0,1.27.64c.35,0,.7-.08,1-.09a7.63,7.63,0,0,1,1.35.06,12.32,12.32,0,0,0,4.36.22c.67-.17,2-.78,1.29-1.65-.15-.18-.36-.3-.52-.46-.34-.33-.23-.6-.19-1a1.18,1.18,0,0,0-.62-1.15A3.62,3.62,0,0,0,11.79,7a15.27,15.27,0,0,0-2.23.28A1.46,1.46,0,0,1,7.9,6.43,10.77,10.77,0,0,1,7.85,4c0-.27,0-1-.39-1.07-.14,0-.12,0-.23.08s0,.13-.06.14c-.36.1-.43-.56-.43-.75s.09-.79-.3-.9-.54.32-.58.6A5.49,5.49,0,0,0,6,3.26c0,.43.09.85.11,1.27a6.23,6.23,0,0,1-.34,2.61A6.22,6.22,0,0,0,5,9.25,2.78,2.78,0,0,0,5.59,11c.07.09.22,0,.15-.09Z" transform="translate(-2.1 -1.5)"/><path class="cls-5" d="M14.44,10.07c.22.83-.7,1.12-1.32,1.17s-1,.09-1.45.09A9.6,9.6,0,0,1,10,11a10.74,10.74,0,0,0-1.5-.15,5.87,5.87,0,0,1-1.62-.11,1.88,1.88,0,0,1-1.06-1,3.93,3.93,0,0,1,.32-3.24c0-.1-.11-.19-.15-.09a4.17,4.17,0,0,0-.38,3.3,2.26,2.26,0,0,0,.92,1.08,3.78,3.78,0,0,0,1.8.24,11.76,11.76,0,0,1,2.36.32,6.2,6.2,0,0,0,2,.07c.81,0,2.27-.23,1.95-1.42a.09.09,0,0,0-.17.05Z" transform="translate(-2.1 -1.5)"/><path class="cls-5" d="M6.25,1.68a28.54,28.54,0,0,0,.18,3.46,5.58,5.58,0,0,1-.1,1.68A6.74,6.74,0,0,0,6,8.29a.09.09,0,0,0,.18,0,10.47,10.47,0,0,1,.41-1.65,5.81,5.81,0,0,0,.06-1.5,28.54,28.54,0,0,1-.18-3.46c0-.11-.17-.11-.18,0Z" transform="translate(-2.1 -1.5)"/><path class="cls-5" d="M6,8.2a3.34,3.34,0,0,0,1,2.2c.68.53,1.6.27,2.39.3,1.59.06,3.95.93,4.91-.91,0-.1-.1-.19-.15-.09-.86,1.65-3,1-4.46.84-.76-.06-1.66.21-2.37-.15A2.82,2.82,0,0,1,6.16,8.2c0-.12-.2-.12-.18,0Z" transform="translate(-2.1 -1.5)"/><path class="cls-5" d="M13.83,9.39c0,.63-.94,1-1.46,1.1a4.66,4.66,0,0,1-1.74-.18,6.06,6.06,0,0,0-1.41-.12,2.57,2.57,0,0,1-1.68-.32,2.39,2.39,0,0,1-.82-1.41,4.6,4.6,0,0,1,.16-1.88,12.27,12.27,0,0,0,0-3.37c0-.11-.18-.11-.17,0a18.64,18.64,0,0,1,.08,2.24,20.7,20.7,0,0,1-.32,2.07,2.57,2.57,0,0,0,1.29,2.7,4.51,4.51,0,0,0,1.79.14,15.48,15.48,0,0,1,1.91.3,2.62,2.62,0,0,0,1.65-.26c.41-.21.85-.5.86-1a.09.09,0,0,0-.18,0Z" transform="translate(-2.1 -1.5)"/><path class="cls-5" d="M7,3.39a3.25,3.25,0,0,1,.14,1.83c0,.66-.06,1.32,0,2A2.85,2.85,0,0,0,8.2,9.77a1.61,1.61,0,0,0,1.27.12,5.14,5.14,0,0,1,2-.08c.82.13,1.94.26,2.38-.65,0-.1-.11-.19-.16-.09-.51,1.07-1.93.55-2.83.49a4.58,4.58,0,0,0-1.47.16,1.45,1.45,0,0,1-1.48-.39c-.78-.82-.65-2.13-.62-3.18,0-.55.07-1.1.09-1.65a2.15,2.15,0,0,0-.22-1.2A.09.09,0,0,0,7,3.39Z" transform="translate(-2.1 -1.5)"/><path class="cls-5" d="M7.67,5.77a4.67,4.67,0,0,0,.06,2.49c.26.64.64,1.19,1.39,1.16.39,0,.74-.23,1.12-.27a5.4,5.4,0,0,1,1.27.09,3.44,3.44,0,0,0,2.29-.45c.1-.06,0-.22-.09-.16a3.25,3.25,0,0,1-2.09.44,4.46,4.46,0,0,0-2,0,1.32,1.32,0,0,1-1.05,0,1.61,1.61,0,0,1-.66-.89,4.36,4.36,0,0,1-.08-2.43c0-.11-.15-.16-.17-.05Z" transform="translate(-2.1 -1.5)"/><path class="cls-5" d="M13.82,8.54l-.05,0a.34.34,0,0,0-.06.06.06.06,0,0,0,0,.06.07.07,0,0,0,0,.06l.06,0a.07.07,0,0,0,.06,0l0,0v0a.1.1,0,0,1,.05,0,.07.07,0,0,0,0,0,.09.09,0,0,0,0-.07l-.06,0h-.07Z" transform="translate(-2.1 -1.5)"/><path class="cls-5" d="M13.88,9.06l0-.23a.45.45,0,0,1,0-.11h0v0s0,0,0,0h0a.09.09,0,0,0,0-.13.09.09,0,0,0-.12,0c-.07.06-.07.17-.08.25l0,.25a.1.1,0,0,0,.09.09c.05,0,.08,0,.09-.09Z" transform="translate(-2.1 -1.5)"/><path class="cls-5" d="M6.74,1.89a.93.93,0,0,1,.59-.07.51.51,0,0,1,.48.27.79.79,0,0,1-.23,1.05.09.09,0,0,0,.09.16A1,1,0,0,0,8,2a.71.71,0,0,0-.59-.36,1.22,1.22,0,0,0-.73.09c-.09.06,0,.22.09.16Z" transform="translate(-2.1 -1.5)"/><path class="cls-5" d="M6.84,2.29s.08-.06.11-.08a.44.44,0,0,1,.16-.06.28.28,0,0,1,.25.12.61.61,0,0,1,0,.66.09.09,0,0,0,0,.12.08.08,0,0,0,.12,0,.78.78,0,0,0,0-.91A.43.43,0,0,0,7.06,2a.92.92,0,0,0-.23.09.35.35,0,0,0-.17.17c0,.11.15.16.18,0Z" transform="translate(-2.1 -1.5)"/><path class="cls-5" d="M6.78,2.68h0s0,0,0,0l0,0H7.1s0,0,0,0,0,0,0,0,0,0,0,0h0s0,0,0,0a.08.08,0,0,1,0,.05l0,.11v0a.13.13,0,0,0,0,.06.49.49,0,0,1,0,.12.11.11,0,0,0,.09.09s.09,0,.09-.09a1.29,1.29,0,0,0,0-.28.47.47,0,0,0-.11-.26.42.42,0,0,0-.27,0,.92.92,0,0,0-.27.08.08.08,0,0,0,0,.12.09.09,0,0,0,.12,0Z" transform="translate(-2.1 -1.5)"/><path class="cls-9" d="M8,8.42a2.49,2.49,0,0,0-.54.43.58.58,0,0,0-.12.28.39.39,0,0,0,.11.31.73.73,0,0,0,.51.3.5.5,0,0,0,.49-.25,2.65,2.65,0,0,0,.11-.3,1,1,0,0,0,.07-.35.3.3,0,0,0-.17-.26,1,1,0,0,0-.31-.11.37.37,0,0,0-.31.1l-.27.24a.48.48,0,0,0-.13.3.38.38,0,0,0,.07.31.6.6,0,0,0,.25.16.67.67,0,0,0,.34.05c.23,0,.32-.26.38-.46a1.24,1.24,0,0,0,0-.33.46.46,0,0,0-.16-.28.36.36,0,0,0-.31-.1.5.5,0,0,0-.27.18c-.14.16-.3.41-.19.62a.46.46,0,0,0,.57.19.46.46,0,0,0,.14-.58.29.29,0,0,0-.25-.17.26.26,0,0,0-.27.12c-.12.17-.12.49.14.52a.25.25,0,0,0,.24-.15.32.32,0,0,0-.07-.31.19.19,0,0,0-.28-.05.36.36,0,0,0-.12.29.23.23,0,0,0,.19.23.29.29,0,0,0,.26-.16.28.28,0,0,0-.05-.32.1.1,0,0,0-.1,0,.32.32,0,0,0-.17.28c0,.1,0,.23.16.22a.25.25,0,0,0,.22-.22.18.18,0,0,0-.15-.24c-.13,0-.16.14-.17.25s0,.25.17.26.19-.13.22-.23a.29.29,0,0,0-.1-.3c-.2-.11-.38.42-.1.44a.26.26,0,0,0,.25-.18.41.41,0,0,0,0-.32.28.28,0,0,0-.27-.18A.21.21,0,0,0,8,8.87a.15.15,0,0,0,.26.05.23.23,0,0,0-.06-.31.17.17,0,0,0-.28.11.2.2,0,0,0,.2.26.14.14,0,0,0,0-.27c-.13,0-.29.08-.23.22S7.94,9,8,9a.09.09,0,0,0,.06-.11s0,0,0,0v0l0,0s0,0,0,0a0,0,0,0,1,0,0v0h0l0,0,0,.05h0v0h0a.11.11,0,0,1,.08.07.35.35,0,0,1-.08.22l0,0s0,0,0,0v0s0-.08,0-.1H8.08s0,.07,0,.09a.14.14,0,0,1,0,.06l0,0s0,0,0,0h0s0,0,0-.06,0-.09,0-.11l0,0s0,0,0,0H8v0l0,0,0,0s0,0,0,0,0,0,0,0V9.1S8,9,8,9l-.1,0a.31.31,0,0,1,0,.1s0,0,0,.07a.08.08,0,0,1-.06,0s0,0,0-.06,0-.15.06-.15h0L8,9a.11.11,0,0,1,0,.1.07.07,0,0,1-.1,0c-.05,0,0-.13,0-.18s0-.1.11-.1A.14.14,0,0,1,8.15,9c0,.1,0,.3-.09.34s-.31,0-.33-.16A.27.27,0,0,1,7.79,9a.56.56,0,0,1,.14-.2.28.28,0,0,1,.16-.12.23.23,0,0,1,.17.08c.12.11.08.26.05.39s-.07.29-.19.34a.52.52,0,0,1-.4-.07.25.25,0,0,1-.11-.12.55.55,0,0,1,0-.22.41.41,0,0,1,.12-.14L8,8.71c.06,0,.11-.09.18-.06a.83.83,0,0,1,.22.08c.06,0,.1,0,.1.12a.69.69,0,0,1,0,.24.81.81,0,0,1-.16.38c-.22.22-.56,0-.7-.2s0-.3.13-.39a3.19,3.19,0,0,1,.42-.3.12.12,0,0,0,0-.13.09.09,0,0,0-.12,0Z" transform="translate(-2.1 -1.5)"/><path class="cls-9" d="M13.4,7.71h0l.09,0h.06l.09,0-.3-.05a.58.58,0,0,0-.19,0,.5.5,0,0,0-.22.13,1.13,1.13,0,0,0-.1.13.44.44,0,0,0-.07.22.83.83,0,0,0,0,.35,1,1,0,0,0,.11.29.57.57,0,0,0,.19.22.85.85,0,0,0,.14.1.47.47,0,0,0,.33,0A.48.48,0,0,0,13.76,9a.54.54,0,0,0,.13-.22.45.45,0,0,0,0-.2.61.61,0,0,0,0-.14V8.34a.59.59,0,0,0,0-.14.52.52,0,0,0-.06-.13l0,.08s0,0,0,0a.37.37,0,0,0-.16-.21.39.39,0,0,0-.28,0,.34.34,0,0,0-.21.16l0,.08a.6.6,0,0,0,0,.19.46.46,0,0,0,.07.16l0-.08V8.32a.88.88,0,0,1,0,.28l0-.09,0,.11,0-.09s0,0,0,.05l0-.08,0,0,.07-.06h0l.08,0h.1l.08,0,0,0,.08.06a.77.77,0,0,1-.13-.12l0,.07a.47.47,0,0,1,0-.1l0,.08a.79.79,0,0,1-.06-.22v.06a.14.14,0,0,1,0-.07l0,.09,0-.05-.06.08a.23.23,0,0,1,.07-.07l-.07.05h0l-.09,0h0l-.1,0h.1l.1,0a.51.51,0,0,0,.32,0,.33.33,0,0,0,.16-.22.32.32,0,0,0,0-.27.36.36,0,0,0-.22-.16.42.42,0,0,0-.27,0Z" transform="translate(-2.1 -1.5)"/><path class="cls-9" d="M10.82,8.87l-.2,0-.21,0a.9.9,0,0,0-.28.08.65.65,0,0,0-.27.25.58.58,0,0,0-.07.43.77.77,0,0,0,.19.31,1,1,0,0,0,.21.2l.16.07.05,0h.13a.52.52,0,0,0,.4-.18A.54.54,0,0,0,11,9.9a.62.62,0,0,0,.07-.19.66.66,0,0,0,0-.28.7.7,0,0,1,0-.12v0l0,.1a.36.36,0,0,1,0-.11l-.65.08v0l0-.09s0,0,0,.06l0-.1a.08.08,0,0,1,0,.07l0-.09,0,.05,0-.08,0,.05.06-.07h0a.19.19,0,0,0-.07.12.16.16,0,0,0,0,.13.35.35,0,0,0,.1.26.39.39,0,0,0,.25.1.33.33,0,0,0,.25-.1.77.77,0,0,0,.09-.13.67.67,0,0,0,.07-.24.78.78,0,0,0,0-.16.44.44,0,0,0-.06-.16L11,9l-.07-.05a.32.32,0,0,0-.23,0,.33.33,0,0,0-.17.07.13.13,0,0,0-.06.07.24.24,0,0,0-.07.12.19.19,0,0,0,0,.08.3.3,0,0,0,0,.16.88.88,0,0,0,0,.16.14.14,0,0,1,0,.07v-.1a.19.19,0,0,1,0,.1l0-.08a.41.41,0,0,1-.05.09l.05-.07,0,0,.07-.06,0,0,.08,0h.09l-.06,0,.09,0-.08-.05.07.06a.75.75,0,0,1-.15-.16l0,.08a.41.41,0,0,1,0-.09l0,.08s0,0,0-.06v.14s0,0,0-.06l0,.09a.05.05,0,0,1,0-.05l-.06.07.05,0-.07.06.08,0-.08,0a.79.79,0,0,1,.22-.06h0a.36.36,0,0,0,.27,0,.35.35,0,0,0,.17-.21A.39.39,0,0,0,11,9a.37.37,0,0,0-.21-.16Z" transform="translate(-2.1 -1.5)"/><path class="cls-10" d="M9.81,9.68a1.15,1.15,0,0,0,.74.24,1,1,0,0,0,.65-.4L11,9.46c0,.06,0,.11-.07.15a1,1,0,0,1-.08.18.65.65,0,0,1-.32.24.33.33,0,0,1-.32-.11,1.87,1.87,0,0,0-.3-.26.09.09,0,0,0-.1.14,1.14,1.14,0,0,0,.25.18.91.91,0,0,0,.26.13.38.38,0,0,0,.26,0l.11-.09s.08,0,.12,0,.08-.18,0-.17-.35.05-.53.05a.09.09,0,1,0,0,.18h.21c.12,0,.12-.16,0-.18h-.21V10a4.78,4.78,0,0,0,.53-.06l0-.17s-.07,0-.11,0l-.09,0c-.06.05-.11.1-.19.08a.62.62,0,0,1-.22-.1A1.53,1.53,0,0,1,10,9.67l-.11.14c.14.08.22.22.35.31a.46.46,0,0,0,.45.06A.9.9,0,0,0,11,9.89c0-.07.06-.14.1-.21a.58.58,0,0,0,.08-.22.09.09,0,0,0-.15-.06.77.77,0,0,1-.54.34,1,1,0,0,1-.63-.22c-.1-.06-.19.1-.09.16Z" transform="translate(-2.1 -1.5)"/><path class="cls-10" d="M7.39,8.92a.74.74,0,0,0,.12.31.57.57,0,0,0,.29.19.88.88,0,0,0,.36,0l.18,0a.67.67,0,0,1,.18-.07l-.11-.11a.83.83,0,0,1-.09.16.29.29,0,0,1-.11.11.44.44,0,0,1-.32,0,.36.36,0,0,1-.24-.21l-.09-.15A.26.26,0,0,1,7.49,9l-.15.07c.07.07.13.15.2.23a1.75,1.75,0,0,0,.24.23.33.33,0,0,0,.3.06.39.39,0,0,0,.1-.08.15.15,0,0,1,.13,0l-.08-.09h0l0,0s0,0,0,0l0,0-.06,0c-.11,0-.06.21,0,.17s.21-.07.22-.18,0-.08-.09-.09a.26.26,0,0,0-.15,0,.33.33,0,0,0-.1.06s-.05,0-.08,0a.17.17,0,0,1-.12-.06,2,2,0,0,1-.21-.2,1.3,1.3,0,0,0-.19-.22s-.16,0-.15.06a.58.58,0,0,0,.08.22l.12.2a.52.52,0,0,0,.35.26.61.61,0,0,0,.44,0,.44.44,0,0,0,.16-.17.88.88,0,0,0,.12-.21.09.09,0,0,0-.11-.11c-.1,0-.19.08-.29.1a.71.71,0,0,1-.29,0,.44.44,0,0,1-.24-.13.73.73,0,0,1-.09-.26c0-.11-.19-.07-.17.05Z" transform="translate(-2.1 -1.5)"/><path class="cls-10" d="M13,8.94a1.67,1.67,0,0,0,.59-.31,1.92,1.92,0,0,0,.4-.5l-.17-.05a1,1,0,0,1-.18.68.4.4,0,0,1-.27.16.43.43,0,0,1-.3-.09L13,9a.87.87,0,0,0,.52-.17.09.09,0,0,0-.09-.16.83.83,0,0,0-.21.16.09.09,0,0,0,0,.15.38.38,0,0,0,.4-.2c0-.08.07-.2,0-.23s-.19.07-.24.13a.09.09,0,0,0,.11.14.91.91,0,0,0,.34-.36.1.1,0,0,0,0-.12.11.11,0,0,0-.13,0,.59.59,0,0,1-.27.29l.11.14,0-.05h.05s0,0,0,0l0,0h0l0,0s0,0,0,0a.05.05,0,0,1,0,0l0,0a.15.15,0,0,1-.13,0l0,.15a.71.71,0,0,1,.18-.12l-.09-.16a.68.68,0,0,1-.43.15c-.1,0-.11.12,0,.17a.61.61,0,0,0,.39.11.51.51,0,0,0,.38-.2A1.1,1.1,0,0,0,14,8.08a.09.09,0,0,0-.16,0,2,2,0,0,1-.36.46,1.48,1.48,0,0,1-.53.27c-.11,0-.06.21,0,.17Z" transform="translate(-2.1 -1.5)"/><path class="cls-11" d="M12.88,8.28a.52.52,0,0,0,0,.17.07.07,0,0,0,0,.05.08.08,0,0,0,.07,0,.1.1,0,0,0,.06-.11.09.09,0,0,1,0-.05V8.28a.19.19,0,0,0,0-.07l-.07,0-.06,0v0s0,0,0,0Z" transform="translate(-2.1 -1.5)"/><path class="cls-11" d="M10.71,9.22h0l0,0,0,0a.05.05,0,0,1,0,0v0a0,0,0,0,1,0,.05v0h0a.08.08,0,0,0,0,.07.08.08,0,0,0,0,.06h.06a.07.07,0,0,0,.06,0,.3.3,0,0,0,0-.1.12.12,0,0,0,0-.08.25.25,0,0,0-.1-.15h-.07l-.05,0a.06.06,0,0,0,0,.07s0,0,0,.06Z" transform="translate(-2.1 -1.5)"/><path class="cls-11" d="M8.39,8.94V9a.14.14,0,0,0,0,.06s0,0,.07,0A.08.08,0,0,0,8.56,9v0a.11.11,0,0,0,0-.06.09.09,0,0,0-.06,0,.09.09,0,0,0-.09.09Z" transform="translate(-2.1 -1.5)"/><path class="cls-5" d="M10.6,8.74a.91.91,0,0,0-.83.43.49.49,0,0,0-.1.22.55.55,0,0,0,.06.28,1.76,1.76,0,0,0,.24.42.65.65,0,0,0,.84.18.9.9,0,0,0,.45-.82.87.87,0,0,0-.17-.54.52.52,0,0,0-.5-.18c-.12,0-.07.19,0,.17.29-.06.44.28.45.51a.76.76,0,0,1-.29.67.49.49,0,0,1-.64-.05,2,2,0,0,1-.2-.3c-.06-.12-.14-.26-.08-.39a.72.72,0,0,1,.68-.42c.11,0,.16-.16,0-.18Z" transform="translate(-2.1 -1.5)"/><path class="cls-5" d="M13.31,7.76a.7.7,0,0,1,.62.34.53.53,0,0,1,.08.17.47.47,0,0,1-.06.21,2.59,2.59,0,0,1-.19.33.49.49,0,0,1-.63.15.68.68,0,0,1-.35-.61.72.72,0,0,1,.09-.43.34.34,0,0,1,.35-.17c.11,0,.16-.15,0-.18a.53.53,0,0,0-.46.14.82.82,0,0,0-.21.45,1,1,0,0,0,.34.89.67.67,0,0,0,.86,0,1.39,1.39,0,0,0,.27-.41.54.54,0,0,0,.08-.49,1.09,1.09,0,0,0-.36-.41.72.72,0,0,0-.53-.13c-.11,0-.07.19.05.17Z" transform="translate(-2.1 -1.5)"/><path class="cls-5" d="M7.8,8.38a3.6,3.6,0,0,0-.41.37.53.53,0,0,0-.15.43.78.78,0,0,0,.61.63.72.72,0,0,0,.48,0,.64.64,0,0,0,.3-.35.81.81,0,0,0,0-.86c-.2-.26-.67-.45-.91-.13,0,0,0,.09,0,.12a.11.11,0,0,0,.12,0c.15-.21.5,0,.62.14a.63.63,0,0,1,0,.65.6.6,0,0,1-.21.28.49.49,0,0,1-.36,0,.62.62,0,0,1-.5-.46.41.41,0,0,1,.13-.36l.38-.32c.09-.07,0-.2-.13-.13Z" transform="translate(-2.1 -1.5)"/><path class="cls-12" d="M9,7.58a.82.82,0,0,0-.44,0A.32.32,0,0,0,8.29,8a.37.37,0,0,0,.09.16c.22.21.61.23.72.51,0,.06,0,.14.08.18a.24.24,0,0,0,.14,0c.42,0,.75-.33,1.14-.48a1.24,1.24,0,0,1,.71-.06,1.57,1.57,0,0,0,.7.1.73.73,0,0,0,.43-.49.48.48,0,0,0-.07-.54A.45.45,0,0,0,12,7.3c-.6-.06-1.14.35-1.73.42A3.19,3.19,0,0,1,9,7.55" transform="translate(-2.1 -1.5)"/><path class="cls-12" d="M9,7.49c-.28,0-.64,0-.74.31s.2.47.41.57A.82.82,0,0,1,9,8.61c.08.11.07.25.21.31s.61-.08.83-.21a1.57,1.57,0,0,1,1.2-.29c.34.08.67.2.95-.09a.94.94,0,0,0,.26-.75c0-.31-.34-.38-.62-.37a4.31,4.31,0,0,0-1.2.34,2.69,2.69,0,0,1-1.56-.09c-.11,0-.15.14,0,.17a4.15,4.15,0,0,0,.93.19,2.28,2.28,0,0,0,.85-.15c.34-.12,1.67-.66,1.44.18a.74.74,0,0,1-.19.36.53.53,0,0,1-.53.11,1.94,1.94,0,0,0-.83-.1,2.44,2.44,0,0,0-.72.32,2.25,2.25,0,0,1-.38.19.71.71,0,0,1-.2,0c-.11,0-.15-.08-.2-.17a.85.85,0,0,0-.47-.38c-.13-.07-.31-.15-.34-.31s.21-.24.32-.25a1.11,1.11,0,0,1,.26,0c.12,0,.11-.17,0-.18Z" transform="translate(-2.1 -1.5)"/><path class="cls-13" d="M8.45,7.75A.29.29,0,0,0,8.54,8a.68.68,0,0,0,.22.12l0-.15L8.65,8a.09.09,0,0,0,0,.12.09.09,0,0,0,.13,0l.06-.06a.1.1,0,0,0,0-.09s0-.05-.06-.06h0l0,0,0,0h0s0,0,0,0h0v0h0v0h0v0a.09.09,0,0,0-.09-.09s-.08,0-.09.09Z" transform="translate(-2.1 -1.5)"/><path class="cls-13" d="M10.84,7.94v0a.09.09,0,0,0-.09-.09.09.09,0,0,0-.09.09v0a.09.09,0,0,0,0,.07l.06,0a.09.09,0,0,0,.09-.09Z" transform="translate(-2.1 -1.5)"/><path class="cls-13" d="M10,8.33l0,0v0l0,.06v0a.14.14,0,0,1,0,.06v0a0,0,0,0,1,0,0,.14.14,0,0,0,0,.07l.07,0a.09.09,0,0,0,.08-.09.31.31,0,0,0-.1-.25l-.07,0L10,8.2s0,0,0,.07a.07.07,0,0,0,0,.06Z" transform="translate(-2.1 -1.5)"/><path class="cls-13" d="M12,7.77a.09.09,0,1,0,0-.18.09.09,0,0,0,0,.18Z" transform="translate(-2.1 -1.5)"/><path class="cls-13" d="M11.63,8.36h0l.06,0,.07,0a.14.14,0,0,0,0-.07.14.14,0,0,0,0-.06h0a.11.11,0,0,0-.07,0,.07.07,0,0,0-.06,0,.09.09,0,0,0,0,.06.09.09,0,0,0,0,.07Z" transform="translate(-2.1 -1.5)"/><path d="M9.43,8.7a.09.09,0,1,0,0-.17.09.09,0,0,0,0,.17Z" transform="translate(-2.1 -1.5)"/><path d="M11.3,8V8s0,0,.06,0a.06.06,0,0,0,.07,0,.09.09,0,0,0,0-.12l0,0a.1.1,0,0,0,0,0h-.07a.09.09,0,0,0,0,.12Z" transform="translate(-2.1 -1.5)"/><path d="M9.12,8.16a.09.09,0,0,0,0-.18.09.09,0,0,0,0,.18Z" transform="translate(-2.1 -1.5)"/><path d="M9.76,7.75h0l0,0a.11.11,0,0,0-.06.11s0,0,0,.05V8l0,.08a.08.08,0,0,0,.06,0,.06.06,0,0,0,.07,0,.1.1,0,0,0,0-.05.17.17,0,0,0,0-.07V8a.32.32,0,0,1,0-.09v0h0v0h0v0h0v0h0a.07.07,0,0,0,.06,0,.17.17,0,0,0,0-.07.1.1,0,0,0-.11-.06Z" transform="translate(-2.1 -1.5)"/></svg>